<?xml version="1.0" encoding="UTF-8"?>
<svg enable-background="new 0 0 240 80" version="1.1" viewBox="0 0 240 80" xml:space="preserve" xmlns="http://www.w3.org/2000/svg" xmlns:xlink="http://www.w3.org/1999/xlink">
<style type="text/css">
	.st0{clip-path:url(#h);fill:#55CDFF;}
	.st1{clip-path:url(#f);fill:#F7A8B8;}
	.st2{clip-path:url(#d);}
	.st3{fill:#55CDFF;}
	.st4{clip-path:url(#b);fill:#FFFFFF;}
	.st5{clip-path:url(#j);}
	.st6{fill:#F7A8B8;}
</style>
	<defs>
		<polygon id="i" points="0 0 0 80 240 80 197.8 0"/>
	</defs>
	<clipPath id="h">
		<use xlink:href="#i"/>
	</clipPath>
	<rect class="st0" width="240" height="80"/>
	<defs>
		<polygon id="g" points="0 0 0 80 240 80 197.8 0"/>
	</defs>
	<clipPath id="f">
		<use xlink:href="#g"/>
	</clipPath>
	<rect class="st1" y="16" width="240" height="48"/>
	<defs>
		<polygon id="e" points="0 0 0 80 240 80 197.8 0"/>
	</defs>
	<clipPath id="d">
		<use xlink:href="#e"/>
	</clipPath>
	<g class="st2">
		<path class="st3" d="m65.1 62.7c-1.1 1.1-2.6 1.6-4.4 1.6h-6v-16.6h6c1.7 0 3.3 0.5 4.4 1.6 1.9 1.9 1.7 4.1 1.7 6.6s0.2 4.9-1.7 6.8zm-2.2-11.1c-0.6-0.7-1.3-1-2.4-1h-2.5v10.8h2.4c1.1 0 1.9-0.3 2.4-1 0.6-0.7 0.7-1.9 0.7-4.4 0.1-2.6 0-3.6-0.6-4.4z"/>
		<path class="st3" d="m70.1 64.3v-16.6h10.9v2.9h-7.7v3.9h6.5v2.9h-6.5v4h7.7v2.9h-10.9z"/>
		<path class="st3" d="m90 64.4c-3.4 0-6.1-2.3-6.1-5.8v-10.9h3.2v10.7c0 1.9 1.1 3 2.9 3 1.7 0 2.9-1.1 2.9-3v-10.7h3.1v10.9c0 3.5-2.7 5.8-6 5.8z"/>
		<path class="st3" d="m105.9 50.6v13.6h-3.2v-13.6h-4.3v-2.9h11.9v2.9h-4.4z"/>
		<path class="st3" d="m117.4 64.4c-2.5 0-4.4-0.5-6-2.2l2.1-2.1c1 1 2.5 1.4 4 1.4 1.9 0 2.9-0.7 2.9-2 0-0.6-0.2-1.1-0.5-1.4s-0.7-0.5-1.5-0.6l-2-0.3c-1.4-0.2-2.5-0.7-3.2-1.4-0.8-0.8-1.2-1.9-1.2-3.2 0-2.9 2.2-5 5.8-5 2.3 0 3.9 0.6 5.3 1.9l-2 2c-1-1-2.3-1.1-3.4-1.1-1.7 0-2.6 1-2.6 2.1 0 0.4 0.1 0.9 0.5 1.2 0.3 0.3 0.9 0.6 1.5 0.7l1.9 0.3c1.5 0.2 2.5 0.6 3.2 1.3 0.9 0.8 1.3 2 1.3 3.5 0 3.1-2.6 4.9-6.1 4.9z"/>
		<path class="st3" d="m132.1 64.4c-1.8 0-3.2-0.6-4.5-1.8-0.7-0.7-1.2-1.6-1.3-2.5-0.2-0.9-0.3-2.3-0.3-4.1s0.1-3.2 0.3-4.1c0.2-1 0.6-1.8 1.3-2.5 1.2-1.2 2.7-1.8 4.5-1.8 3.2 0 5.5 1.9 6.1 5.2h-3.3c-0.3-1.4-1.2-2.3-2.8-2.3-0.9 0-1.6 0.3-2.1 0.9-0.7 0.7-0.8 1.5-0.8 4.7s0.1 3.9 0.8 4.7c0.5 0.6 1.2 0.9 2.1 0.9 1.6 0 2.4-0.9 2.8-2.3h3.3c-0.6 3.1-2.9 5-6.1 5z"/>
		<path class="st3" d="M149.8,64.3v-6.9h-5.6v6.9H141V47.7h3.2v6.8h5.6v-6.8h3.2v16.5H149.8z"/>
		<path class="st3" d="M156.9,64.3V47.7h3.2v13.6h7.5v2.9H156.9z"/>
		<path class="st3" d="m179.6 64.3l-1-2.9h-5.9l-1 2.9h-3.4l6-16.5h2.5l6 16.5h-3.2zm-3.9-11.7l-2.1 6h4.1l-2-6z"/>
		<path class="st3" d="M194.8,64.3l-6.5-10.1v10.1H185V47.7h2.9l6.5,10.1V47.7h3.2v16.5H194.8z"/>
		<path class="st3" d="m211.8 62.7c-1.1 1.1-2.6 1.6-4.4 1.6h-6v-16.6h6c1.7 0 3.3 0.5 4.4 1.6 1.9 1.9 1.7 4.1 1.7 6.6s0.2 4.9-1.7 6.8zm-2.2-11.1c-0.6-0.7-1.3-1-2.4-1h-2.4v10.8h2.4c1.1 0 1.9-0.3 2.4-1 0.6-0.7 0.7-1.9 0.7-4.4 0-2.6-0.1-3.6-0.7-4.4z"/>
	</g>
	<defs>
		<polygon id="c" points="0 0 0 80 240 80 197.8 0"/>
	</defs>
	<clipPath id="b">
		<use xlink:href="#c"/>
	</clipPath>
	<rect class="st4" y="32" width="240" height="16"/>
	<defs>
		<polygon id="a" points="0 0 0 80 240 80 197.8 0"/>
	</defs>
	<clipPath id="j">
		<use xlink:href="#a"/>
	</clipPath>
	<g class="st5">
		<path class="st6" d="M22.8,34.7v13.6h-3.2V34.7h-4.3v-2.9h11.9v2.9H22.8z"/>
		<path class="st6" d="m39.5 46.6c-1.3 1.3-2.8 1.9-4.7 1.9-1.8 0-3.2-0.6-4.5-1.8-0.7-0.7-1.2-1.6-1.3-2.5-0.2-0.9-0.3-2.3-0.3-4.1s0.1-3.2 0.3-4.1c0.2-1 0.6-1.8 1.3-2.5 1.2-1.2 2.7-1.8 4.5-1.8 3.8 0 5.8 2.4 6.2 5.3h-3.2c-0.4-1.6-1.4-2.4-3-2.4-0.9 0-1.6 0.3-2.1 0.9-0.6 0.8-0.8 1.4-0.8 4.6s0.1 3.9 0.8 4.7c0.5 0.6 1.2 0.9 2.1 0.9 1 0 1.7-0.3 2.3-0.9 0.5-0.6 0.7-1.3 0.7-2.2v-0.6h-3v-2.7h6.2v2.4c0.1 2.3-0.4 3.7-1.5 4.9z"/>
		<path class="st6" d="m43.5 43.1v-2.8h7.1v2.8h-7.1z"/>
	</g>
</svg>
