<?xml version="1.0" encoding="utf-8"?>
<!-- Generator: Adobe Illustrator 23.0.3, SVG Export Plug-In . SVG Version: 6.00 Build 0)  -->
<svg version="1.0" id="Layer_2" xmlns="http://www.w3.org/2000/svg" xmlns:xlink="http://www.w3.org/1999/xlink" x="0px" y="0px"
	 width="300px" height="100px" viewBox="0 0 300 100" style="enable-background:new 0 0 300 100;" xml:space="preserve">
<defs>
	<polygon id="SVGID_1_" points="0,0 0,100 300,100 247.22749,0 	"/>
</defs>
<clipPath id="SVGID_2_">
	<use xlink:href="#SVGID_1_"  style="overflow:visible;"/>
</clipPath>
<rect style="clip-path:url(#SVGID_2_);fill:#55CDFF;" width="300" height="100"/>
<rect y="20" style="clip-path:url(#SVGID_2_);fill:#F7A8B8;" width="300" height="60"/>
<g style="clip-path:url(#SVGID_2_);">
	<path style="fill:#55CDFF;" d="M81.41309,78.35156c-1.36377,1.36328-3.30713,1.97266-5.45361,1.97266h-7.45459V59.6709h7.45459
		c2.14648,0,4.08984,0.60938,5.45361,1.97266c2.32031,2.32031,2.08838,5.16309,2.08838,8.26758
		C83.50146,73.01465,83.7334,76.03125,81.41309,78.35156z M78.59912,64.54492c-0.69629-0.8418-1.62451-1.27637-3.0166-1.27637
		h-3.0459v13.45898h3.0459c1.39209,0,2.32031-0.43555,3.0166-1.27637c0.75439-0.92871,0.87012-2.40723,0.87012-5.54004
		S79.35352,65.47266,78.59912,64.54492z"/>
	<path style="fill:#55CDFF;" d="M87.61572,80.32422V59.6709h13.604v3.59766h-9.57227v4.84375h8.15088v3.59668h-8.15088v5.01855
		h9.57227v3.59668H87.61572z"/>
	<path style="fill:#55CDFF;" d="M112.44141,80.49805c-4.23535,0-7.6001-2.87109-7.6001-7.25195V59.6709h4.03223v13.43066
		c0,2.37891,1.39209,3.7998,3.56787,3.7998c2.17529,0,3.59668-1.4209,3.59668-3.7998V59.6709h4.00293v13.5752
		C120.04102,77.62695,116.67627,80.49805,112.44141,80.49805z"/>
	<path style="fill:#55CDFF;" d="M132.42236,63.26855v17.05566h-4.03174V63.26855h-5.39551V59.6709h14.82275v3.59766H132.42236z"/>
	<path style="fill:#55CDFF;" d="M146.77686,80.49805c-3.13281,0-5.51123-0.66699-7.5415-2.72656l2.61035-2.61035
		c1.30566,1.30469,3.07471,1.74023,4.98926,1.74023c2.37891,0,3.65527-0.89941,3.65527-2.55273
		c0-0.72461-0.20313-1.33398-0.63867-1.74023c-0.40625-0.37695-0.87012-0.58008-1.82715-0.72559l-2.49463-0.34766
		c-1.76953-0.26074-3.07471-0.8125-4.00293-1.71191c-0.98633-0.98535-1.47949-2.32031-1.47949-4.06055
		c0-3.68359,2.72656-6.26563,7.19385-6.26563c2.84277,0,4.90234,0.69629,6.67188,2.4082l-2.55273,2.52344
		c-1.30566-1.24805-2.87207-1.42188-4.23535-1.42188c-2.14648,0-3.19043,1.18945-3.19043,2.61133
		c0,0.52148,0.17383,1.07324,0.60889,1.47852c0.40625,0.37793,1.07324,0.69629,1.91455,0.8125l2.43652,0.34863
		c1.88574,0.26074,3.0752,0.78223,3.94531,1.59473c1.10156,1.04395,1.59473,2.55273,1.59473,4.37988
		C154.43457,78.23535,151.09863,80.49805,146.77686,80.49805z"/>
	<path style="fill:#55CDFF;" d="M165.13379,80.49805c-2.20508,0-4.06152-0.75391-5.56934-2.2627
		c-0.89941-0.89844-1.4502-1.94336-1.68262-3.10352s-0.34863-2.87109-0.34863-5.13379s0.11621-3.97461,0.34863-5.13477
		c0.23242-1.18945,0.7832-2.2041,1.68262-3.10352c1.50781-1.50879,3.36426-2.2627,5.56934-2.2627
		c3.97363,0,6.90332,2.32031,7.59961,6.52637h-4.08984c-0.43555-1.76953-1.53711-2.92969-3.48145-2.92969
		c-1.10156,0-1.97168,0.34863-2.58105,1.07324c-0.8418,0.89941-1.01563,1.82813-1.01563,5.83105s0.17383,4.93066,1.01563,5.83008
		c0.60938,0.72559,1.47949,1.07324,2.58105,1.07324c1.94434,0,3.0459-1.16016,3.48145-2.92969h4.08984
		C172.03711,78.17773,169.07813,80.49805,165.13379,80.49805z"/>
	<path style="fill:#55CDFF;" d="M187.2334,80.32422v-8.64453h-6.99121v8.64453h-4.03223V59.6709h4.03223v8.44141h6.99121V59.6709
		h4.03125v20.65332H187.2334z"/>
	<path style="fill:#55CDFF;" d="M196.07422,80.32422V59.6709h4.03223v17.05664h9.36914v3.59668H196.07422z"/>
	<path style="fill:#55CDFF;" d="M224.49707,80.32422l-1.21777-3.65527h-7.33887l-1.24805,3.65527h-4.20508L218,59.6709h3.16113
		l7.54199,20.65332H224.49707z M219.68164,65.7627l-2.61035,7.5127h5.13477L219.68164,65.7627z"/>
	<path style="fill:#55CDFF;" d="M243.46289,80.32422l-8.17969-12.67578v12.67578h-4.03223V59.6709h3.59766l8.17969,12.64746V59.6709
		h4.03223v20.65332H243.46289z"/>
	<path style="fill:#55CDFF;" d="M264.77832,78.35156c-1.36328,1.36328-3.30664,1.97266-5.45313,1.97266h-7.45508V59.6709h7.45508
		c2.14648,0,4.08984,0.60938,5.45313,1.97266c2.32129,2.32031,2.08887,5.16309,2.08887,8.26758
		C266.86719,73.01465,267.09961,76.03125,264.77832,78.35156z M261.96484,64.54492c-0.69629-0.8418-1.62402-1.27637-3.0166-1.27637
		h-3.0459v13.45898h3.0459c1.39258,0,2.32031-0.43555,3.0166-1.27637c0.75391-0.92871,0.87012-2.40723,0.87012-5.54004
		S262.71875,65.47266,261.96484,64.54492z"/>
</g>
<rect y="40" style="clip-path:url(#SVGID_2_);fill:#FFFFFF;" width="300" height="20"/>
<g style="clip-path:url(#SVGID_2_);">
	<path style="fill:#F7A8B8;" d="M28.54736,43.33984v17.05664h-4.03174V43.33984h-5.39551v-3.59668h14.82275v3.59668H28.54736z"/>
	<path style="fill:#F7A8B8;" d="M49.37109,58.2207c-1.59521,1.625-3.50977,2.34961-5.83057,2.34961
		c-2.2041,0-4.06055-0.75391-5.56934-2.26367c-0.89893-0.89844-1.4502-1.94336-1.68213-3.10352s-0.34814-2.87109-0.34814-5.13379
		c0-2.26221,0.11621-3.97363,0.34814-5.13428c0.23193-1.18896,0.7832-2.2041,1.68213-3.10352
		c1.50879-1.5083,3.36523-2.2627,5.56934-2.2627c4.69922,0,7.22314,3.01709,7.77393,6.61377h-4.06104
		c-0.49316-2.00146-1.71143-3.0166-3.71289-3.0166c-1.07324,0-1.94336,0.37695-2.58154,1.10205
		c-0.75391,0.95752-0.98633,1.71143-0.98633,5.80127c0,4.06152,0.17432,4.87402,0.98633,5.83105
		c0.60938,0.72461,1.47949,1.07227,2.58154,1.07227c1.18945,0,2.14648-0.37695,2.87207-1.16016
		c0.60889-0.69531,0.92822-1.62305,0.92822-2.75586v-0.7832h-3.80029v-3.36426h7.80322v3.0166
		C51.34375,54.94336,50.79248,56.71289,49.37109,58.2207z"/>
	<path style="fill:#F7A8B8;" d="M54.41357,53.86914v-3.50977h8.93408v3.50977H54.41357z"/>
</g>
</svg>
